<svg width="16" height="18" viewBox="0 0 16 18" fill="none" xmlns="http://www.w3.org/2000/svg">
<path fill-rule="evenodd" clip-rule="evenodd" d="M10.6945 0.0176232C10.7076 -0.00107005 10.7334 -0.00561301 10.7521 0.00747616L12.0301 0.902403C12.0489 0.915491 12.0534 0.941254 12.0403 0.959947L10.2614 3.50043C11.1262 3.77672 11.7154 4.07474 11.7154 4.07474C11.7154 4.07474 10.2753 6.55193 7.83264 6.55193C5.39001 6.55193 3.6543 4.24314 3.6543 4.24314C3.6543 4.24314 4.26975 3.85037 5.18206 3.5135L3.23088 1.1882C3.21622 1.17072 3.2185 1.14466 3.23597 1.12999L4.43119 0.127078C4.4487 0.11241 4.47475 0.11469 4.48941 0.132171L6.95992 3.07641C7.17146 3.05249 7.38697 3.03911 7.60444 3.03911C7.91702 3.03911 8.22921 3.06287 8.53398 3.1032L10.6945 0.0176232ZM11.1778 6.66925C11.8296 6.20371 12.816 4.98863 12.816 4.98863C12.816 4.98863 15.3354 6.98516 15.3354 11.2186C15.3354 15.4519 10.9797 17.9998 10.9797 17.9998C10.9797 17.9998 8.89859 15.8981 8.38769 13.2339C7.87684 10.5697 9.14342 7.61147 9.14342 7.61147C9.14342 7.61147 10.5259 7.13479 11.1778 6.66925ZM4.15764 6.66925C3.5058 6.20371 2.51945 4.98863 2.51945 4.98863C2.51945 4.98863 0 6.98516 0 11.2186C0 15.4519 4.35574 17.9998 4.35574 17.9998C4.35574 17.9998 6.43683 15.8981 6.94772 13.2339C7.45858 10.5697 6.192 7.61147 6.192 7.61147C6.192 7.61147 4.80951 7.13479 4.15764 6.66925Z" fill="white"/>
</svg>
