<svg width="18" height="18" viewBox="0 0 18 18" fill="none" xmlns="http://www.w3.org/2000/svg">
<path fill-rule="evenodd" clip-rule="evenodd" d="M8.06452 15.9206C8.40648 15.9729 8.75671 16.0001 9.11334 16.0001C12.9103 16.0001 15.9884 12.922 15.9884 9.12506C15.9884 5.32806 12.9103 2.25001 9.11334 2.25001C8.85859 2.25001 8.60705 2.26387 8.35951 2.29087C10.243 3.71783 11.4883 6.18971 11.4883 9.00005C11.4883 11.9546 10.1119 14.5351 8.06452 15.9206ZM8.98832 18.0001C13.9589 18.0001 17.9884 13.9706 17.9884 9.00005C17.9884 4.02946 13.9589 0 8.98832 0C4.01773 0 -0.0117188 4.02946 -0.0117188 9.00005C-0.0117188 13.9706 4.01773 18.0001 8.98832 18.0001Z" fill="white"/>
</svg>
