<svg width="16" height="18" viewBox="0 0 16 18" fill="none" xmlns="http://www.w3.org/2000/svg">
<path fill-rule="evenodd" clip-rule="evenodd" d="M8.74348 8.96071C8.86547 8.88632 8.96897 8.73043 9.05243 8.55718C10.1509 9.00613 10.9228 10.067 10.9228 11.3042C10.9228 12.9478 9.56051 14.2802 7.88004 14.2802C7.1902 14.2802 6.55397 14.0556 6.0436 13.6772C5.87619 13.5979 5.73845 13.5218 5.62573 13.4595C5.4509 13.3628 5.33626 13.2994 5.26447 13.3094C5.05462 13.3383 5.11554 13.5314 5.17092 13.7068C5.2085 13.8259 5.24355 13.9369 5.1893 13.9827C5.13256 14.0306 4.94876 13.8554 4.73399 13.6506C4.44163 13.3719 4.09189 13.0384 3.92698 13.1386C3.79658 13.2178 3.92318 13.4326 4.07815 13.6956L4.08964 13.7151C4.15511 13.8263 4.23097 13.9395 4.3002 14.0427C4.44093 14.2527 4.55427 14.4218 4.49756 14.4505C4.42901 14.4851 3.95137 14.1627 3.54887 13.7151C3.39351 13.5424 3.24304 13.3551 3.10319 13.1811V13.1811C2.79708 12.8002 2.54206 12.4829 2.3989 12.5205C2.22669 12.5657 2.35696 12.9209 2.54839 13.2628C2.63789 13.4226 2.74319 13.5854 2.83435 13.7263V13.7264C2.97613 13.9455 3.08375 14.1119 3.04472 14.1323C2.99206 14.1599 2.52866 13.708 2.21392 13.1386C2.02698 12.8003 1.87 12.4265 1.74292 12.1239C1.6051 11.7958 1.50244 11.5513 1.43484 11.5267C1.19998 11.4412 1.19998 11.9201 1.29418 12.6112C1.30646 12.7014 1.32476 12.796 1.34729 12.8923C2.26081 15.848 5.06703 18.0001 8.38717 18.0001C12.4483 18.0001 15.7405 14.7802 15.7405 10.8082C15.7405 7.02777 12.7582 3.92863 8.96911 3.63848C8.97389 3.46039 9.06685 3.10723 9.06685 3.10723C9.06685 3.10723 9.73577 1.48878 9.77114 1.14293C9.77346 1.11998 9.77623 1.09504 9.77922 1.06847C9.82088 0.694793 9.8984 0 9.30067 0C8.98145 0 8.83302 0.237469 8.66325 0.509062V0.509065C8.59807 0.613329 8.52973 0.722623 8.44739 0.825438C7.85437 1.56599 6.85719 2.49079 6.29177 2.98348C5.09667 4.02485 3.92413 4.8807 3.24026 5.37985L3.24023 5.37988C2.9292 5.60689 2.71928 5.76014 2.65431 5.82345C2.16472 6.30074 0.409285 9.46714 0.409285 9.46714C0.409285 9.46714 -0.158404 10.483 0.0433763 10.6891C0.245157 10.8951 0.73175 10.8479 0.73175 10.8479C0.73175 10.8479 7.26877 9.3482 7.85402 9.22994C8.01159 9.19808 8.12283 9.1797 8.20822 9.1656C8.44008 9.12732 8.4817 9.12042 8.74348 8.96071ZM4.12157 7.03354C3.77067 7.36707 3.18872 8.16319 3.18872 8.16319C3.18872 8.16319 4.27028 8.22981 4.86593 7.66361C5.46162 7.09738 5.32515 6.13244 5.32515 6.13244C5.32515 6.13244 4.47243 6.70001 4.12157 7.03354Z" fill="white"/>
</svg>
