<svg width="17" height="18" viewBox="0 0 17 18" fill="none" xmlns="http://www.w3.org/2000/svg">
<path fill-rule="evenodd" clip-rule="evenodd" d="M2.50432 1.49633C2.72216 0.636259 3.50134 -0.00012207 4.42911 -0.00012207C5.12504 -0.00012207 5.73736 0.357936 6.09187 0.899883H6.67241C7.03308 0.529742 7.53698 0.299879 8.0946 0.299879C8.91212 0.299879 9.61427 0.793999 9.91865 1.49989H10.4047C10.7093 1.30975 11.0691 1.19988 11.4546 1.19988C12.2722 1.19988 12.9743 1.694 13.2787 2.39989H14.6004C14.6117 2.39989 14.6222 2.40293 14.6313 2.40824C14.6917 2.40271 14.7528 2.39989 14.8146 2.39989C15.9112 2.39989 16.8001 3.28881 16.8001 4.38536V10.3389L16.8001 10.3499L16.8001 10.361V10.4467C16.8001 10.483 16.7991 10.5192 16.7971 10.5552C16.6777 14.6853 12.9639 18 8.40004 18C3.76083 18 0 14.5749 0 10.3499C0 8.31054 0.876271 6.45752 2.30463 5.08614C2.30107 7.07434 2.33465 9.1298 2.48945 9.09453C2.90396 9.00003 2.5801 2.84191 2.50432 1.49633Z" fill="white"/>
</svg>
