<svg width="14" height="18" viewBox="0 0 14 18" fill="none" xmlns="http://www.w3.org/2000/svg">
<path fill-rule="evenodd" clip-rule="evenodd" d="M10.1341 13.9006C10.3565 13.0874 9.92484 11.4156 9.92484 11.4156C9.92484 11.4156 9.61174 12.7776 9.1225 13.2809C8.70513 13.7103 8.19378 14.0081 7.46041 14.0864C8.06001 13.7951 8.47235 13.1879 8.47235 12.486C8.47235 11.5007 7.65982 10.7019 6.65751 10.7019C5.6552 10.7019 4.84263 11.5007 4.84263 12.486C4.84263 12.7551 4.90327 13.0103 5.0118 13.2391C4.38489 12.7396 4.28631 11.9389 4.28631 11.9389C4.28631 11.9389 3.58628 14.8453 5.51517 16.2125C7.44403 17.5796 11.2226 16.4045 11.2226 16.4045C11.2226 16.4045 5.81523 20.2092 1.80831 16.0683C-1.64332 12.5011 0.907431 7.80484 0.907431 7.80484C0.907431 7.80484 0.797272 8.24049 0.797272 8.74622C0.797272 9.25194 1.07147 9.63673 1.07147 9.63673C1.07147 9.63673 1.88938 7.9127 2.52592 7.21157C3.12837 6.54803 3.88356 6.00985 4.53585 5.54501C5.03796 5.18719 5.4791 4.87282 5.74256 4.57818C7.19372 2.95556 6.30394 0 6.30394 0C6.30394 0 7.93977 1.44212 8.39645 3.30463C8.57055 4.01458 8.45854 4.82237 8.35841 5.54473C8.19585 6.71741 8.06447 7.66498 9.23887 7.60349C11.1367 7.50411 9.48753 4.57818 9.48753 4.57818C9.48753 4.57818 13.7925 6.84085 13.4709 10.7981C13.1493 14.7554 8.76535 15.6551 8.76535 15.6551C8.76535 15.6551 9.9117 14.7138 10.1341 13.9006Z" fill="white"/>
</svg>
