<svg width="18" height="16" viewBox="0 0 18 16" fill="none" xmlns="http://www.w3.org/2000/svg">
<path fill-rule="evenodd" clip-rule="evenodd" d="M6.28288 15.6001C8.91972 15.6001 11.1772 14.1346 12.1091 12.0571C12.1205 12.0318 8.36748 13.0325 8.48715 12.6787C8.54059 12.5208 10.8412 11.6803 12.5174 10.7C13.4808 10.1366 13.9244 8.9438 13.9244 8.9438C13.9244 8.9438 12.3013 9.73183 11.4808 9.93173C9.82735 10.3346 8.37184 10.2912 8.37184 10.2493C8.37184 10.1585 10.7887 9.69928 14.1478 7.65229C15.7278 6.68946 16.157 5.03099 16.157 5.03099C16.157 5.03099 14.4199 6.06572 13.3697 6.40733C10.8794 7.21744 8.60682 7.46157 8.60682 7.35195C8.60682 7.11725 10.6068 6.56729 12.7272 5.53985C13.8297 5.00564 14.7845 4.30772 15.891 3.53157C17.7015 2.26168 18.0001 0 18.0001 0C18.0001 0 16.2144 1.15173 15.343 1.53421C11.7472 3.11243 8.57216 3.9403 6.28288 4.11953C2.82714 4.39009 0 6.80122 0 9.93173C0 13.0623 2.81293 15.6001 6.28288 15.6001Z" fill="white"/>
</svg>
