<svg width="17" height="18" viewBox="0 0 17 18" fill="none" xmlns="http://www.w3.org/2000/svg">
<path fill-rule="evenodd" clip-rule="evenodd" d="M2.57439 15.1245C2.5126 15.0663 2.4515 15.0071 2.39111 14.9467C-0.797037 11.7586 -0.797036 6.58957 2.39111 3.40144C5.57924 0.213284 15.7379 0 15.7379 0C15.7379 0 17.1245 11.7586 13.9364 14.9467C11.1049 17.7782 6.711 18.095 3.52994 15.897L6.09312 12.7515L10.1906 11.8669L6.84586 11.5325L8.97148 9.36823L11.3911 8.83817L9.47781 8.27156L11.3911 4.82004L8.66963 7.8726L7.6187 6.3896L7.98865 8.83817L6.09312 10.9751L5.21446 8.27152V11.8669L2.57439 15.1245Z" fill="white"/>
</svg>
