<svg width="18" height="14" viewBox="0 0 18 14" fill="none" xmlns="http://www.w3.org/2000/svg">
<path fill-rule="evenodd" clip-rule="evenodd" d="M3.96438 12.9992C3.95949 12.9992 3.95608 12.9944 3.9577 12.9898L8.55318 0.00471106C8.5542 0.001888 8.55687 0 8.55986 0H13.4657C13.4686 0 13.4714 0.00190207 13.4723 0.00474271L17.9996 12.9898C18.0012 12.9945 17.9978 12.9992 17.993 12.9992H4.10248H3.96438ZM0.0070772 13.05C0.00214146 13.05 -0.00127566 13.0451 0.000455653 13.0405L3.42257 3.90433C3.42361 3.90156 3.42624 3.89973 3.42919 3.89973H6.40262C6.40754 3.89973 6.41095 3.90462 6.40927 3.90922L3.10018 13.0454C3.09916 13.0482 3.09651 13.05 3.09353 13.05H0.0070772Z" fill="white"/>
</svg>
