<svg width="18" height="16" viewBox="0 0 18 16" fill="none" xmlns="http://www.w3.org/2000/svg">
<path fill-rule="evenodd" clip-rule="evenodd" d="M13.2975 0.0196406L13.3528 4.88354L9.1105 6.92005L9.05818 2.3276L13.2975 0.0196406Z" fill="white"/>
<path fill-rule="evenodd" clip-rule="evenodd" d="M17.5503 7.68422L13.3506 10.0864L9.14853 7.68043L13.3485 5.47429L17.5503 7.68422Z" fill="white"/>
<path fill-rule="evenodd" clip-rule="evenodd" d="M8.40174 7.68422L4.20212 10.0864L0 7.68043L4.19994 5.47429L8.40174 7.68422Z" fill="white"/>
<path fill-rule="evenodd" clip-rule="evenodd" d="M4.15445 0L8.51336 2.15881L8.40191 6.8633L4.28629 4.825L4.15445 0Z" fill="white"/>
<path fill-rule="evenodd" clip-rule="evenodd" d="M13.4166 15.2945L9.05769 13.1357L9.16914 8.43116L13.2848 10.4695L13.4166 15.2945Z" fill="white"/>
<path fill-rule="evenodd" clip-rule="evenodd" d="M4.3056 15.3384L4.2502 10.4745L8.49256 8.43804L8.54487 13.0305L4.3056 15.3384Z" fill="white"/>
</svg>
