<svg width="17" height="18" viewBox="0 0 17 18" fill="none" xmlns="http://www.w3.org/2000/svg">
<path fill-rule="evenodd" clip-rule="evenodd" d="M15.3959 14.9477C15.3959 14.9477 13.1262 16.7681 8.60957 16.0148C5.18287 15.4432 3.35522 11.6658 3.35522 9.6354C3.35522 4.82143 6.91819 3.72592 9.327 3.72592C11.7358 3.72592 13.3072 6.07437 13.3072 7.89266C13.3072 9.71095 12.0211 11.3014 10.0198 11.3014C8.01848 11.3014 7.42574 9.89633 7.42574 8.60458C7.42574 7.31286 8.47084 6.85776 9.42396 6.85776C10.3771 6.85776 10.7034 7.67149 10.7034 8.37086C10.7034 9.07026 10.1608 9.32071 9.7082 9.32071C9.2556 9.32071 9.21085 9.09237 9.03763 8.8524C8.86438 8.61245 9.25855 7.70415 8.60957 7.70415C7.96058 7.70415 7.8396 8.74833 7.8396 8.74833C7.8396 8.74833 8.07621 10.764 10.0198 10.7292C11.9634 10.6944 12.8855 9.1918 12.6175 7.70415C12.3495 6.21647 10.9058 4.63566 8.37191 4.95509C5.83804 5.27452 4.80349 7.83476 5.25951 10.5708C5.71552 13.3068 8.99326 14.8921 11.5704 14.3218C14.1476 13.7514 16.7144 11.8857 16.7144 7.15525C16.7144 2.42481 12.6175 -0.418613 7.73234 0.0499994C2.84718 0.518609 -0.18531 4.78954 0.00879554 9.92115C0.202901 15.0528 5.07219 17.8476 9.18968 17.9916C13.3072 18.1357 15.8314 15.7522 15.8314 15.7522C15.8314 15.7522 16.399 15.246 16.1765 14.8507C15.9539 14.4554 15.3959 14.9477 15.3959 14.9477Z" fill="white"/>
</svg>
