<svg width="18" height="15" viewBox="0 0 18 15" fill="none" xmlns="http://www.w3.org/2000/svg">
<path fill-rule="evenodd" clip-rule="evenodd" d="M13.8914 6.70634C13.8904 6.70493 13.89 6.70317 13.8902 6.70145L15.0386 0.00533669C15.0391 0.00225347 15.0418 0 15.0449 0H15.4084C15.4112 0 15.4136 0.00181762 15.4145 0.00448951L18.0016 8.19606C18.0025 8.19859 18.0016 8.2014 17.9995 8.20305L16.0919 9.69238C16.0891 9.6946 16.085 9.69404 16.0828 9.69112L13.8914 6.70634ZM-0.0354004 11.1454C-0.0354004 11.1481 -0.0336146 11.1506 -0.0309745 11.1515L3.90124 12.4372C3.90314 12.4378 3.90525 12.4375 3.9069 12.4364L12.6963 6.36838C12.6978 6.36736 12.6988 6.36578 12.699 6.36402L13.6416 0.0396705C13.6422 0.0357892 13.6392 0.0323018 13.6353 0.0323018H5.85C5.84807 0.0323018 5.84627 0.0331526 5.84504 0.0346256L-0.0339229 7.1267C-0.034878 7.12786 -0.0354004 7.1293 -0.0354004 7.13082V11.1454ZM5.53981 12.7648L9.83568 14.172C9.83762 14.1726 9.83976 14.1723 9.84141 14.1711L14.9559 10.5024C14.9588 10.5004 14.9595 10.4965 14.9576 10.4936L13.0403 7.64051C13.0383 7.63753 13.0343 7.63675 13.0313 7.63879L5.53981 12.7648Z" fill="white"/>
</svg>
