<svg width="18" height="16" viewBox="0 0 18 16" fill="none" xmlns="http://www.w3.org/2000/svg">
<path fill-rule="evenodd" clip-rule="evenodd" d="M0.00179687 7.75294C-0.000597821 7.74887 -0.000599024 7.7438 0.00179367 7.73969L4.52797 0.00647931C4.53033 0.00246796 4.53465 0 4.53929 0H13.5104C13.5151 0 13.5194 0.00248913 13.5218 0.00653564L17.9983 7.73976C18.0007 7.7438 18.0007 7.74883 17.9983 7.75287L13.5218 15.4774C13.5194 15.4815 13.5151 15.484 13.5104 15.484H4.53929C4.53465 15.484 4.53033 15.4815 4.52797 15.4775L0.00179687 7.75294ZM13.1702 7.74198C13.1702 10.0443 11.3038 11.9107 9.00146 11.9107C6.69913 11.9107 4.83271 10.0443 4.83271 7.74198C4.83271 5.43962 6.69913 3.57323 9.00146 3.57323C11.3038 3.57323 13.1702 5.43962 13.1702 7.74198Z" fill="white"/>
</svg>
