<svg width="12" height="18" viewBox="0 0 12 18" fill="none" xmlns="http://www.w3.org/2000/svg">
<path fill-rule="evenodd" clip-rule="evenodd" d="M11.678 12.1822C11.678 15.3949 9.06379 17.9993 5.83899 17.9993C2.6142 17.9993 0 15.3949 0 12.1822C0 9.05767 5.52315 0.476296 5.82606 0.00800899C5.83298 -0.00266973 5.84504 -0.00266963 5.85193 0.00800909C6.15484 0.476296 11.678 9.05767 11.678 12.1822ZM4.86565 16.1344C1.90267 15.4861 2.40969 12.2039 2.40969 12.2039C2.40969 12.2039 3.21878 14.1852 5.18223 14.827C7.14565 15.4688 9.51843 14.5275 9.51843 14.5275C9.51843 14.5275 7.82864 16.7827 4.86565 16.1344Z" fill="white"/>
</svg>
